/* XPM */
static char *result[] = {
/* columns rows colors chars-per-pixel */
"64 64 219 2 ",
"   c black",
".  c #040200",
"X  c #040300",
"o  c #090501",
"O  c #090601",
"+  c #0B0701",
"@  c #0E0901",
"#  c #100A01",
"$  c #140E02",
"%  c #150E02",
"&  c #150F02",
"*  c #171002",
"=  c #1A1302",
"-  c #201703",
";  c #241B04",
":  c #261D04",
">  c #291F05",
",  c #2A2005",
"<  c #2C2206",
"1  c #2D2306",
"2  c #2F2406",
"3  c #312507",
"4  c #322607",
"5  c #342807",
"6  c #382B09",
"7  c #3A2D09",
"8  c #3C2F0A",
"9  c #3D2F0A",
"0  c #3E300B",
"q  c #3F310B",
"w  c #43340C",
"e  c #45360D",
"r  c #49390E",
"t  c #514011",
"y  c #524111",
"u  c #534111",
"i  c #544212",
"p  c #554312",
"a  c #574413",
"s  c #584513",
"d  c #5C4814",
"f  c #604C16",
"g  c #624D16",
"h  c #634E17",
"j  c #735B1C",
"k  c #775F1D",
"l  c #826721",
"z  c #836921",
"x  c #846A21",
"c  c #866B22",
"v  c #896E23",
"b  c #8D7124",
"n  c #917426",
"m  c #917427",
"M  c #947627",
"N  c #977928",
"B  c #997B28",
"V  c #9C7D29",
"C  c #9D7E29",
"Z  c #A0812B",
"A  c #A2822B",
"S  c #A3832C",
"D  c #A4842C",
"F  c #A5842C",
"G  c #A6862D",
"H  c #A7862D",
"J  c #A9882D",
"K  c #AB892E",
"L  c #AC8B2F",
"P  c #AD8B2F",
"I  c #AE8C2F",
"U  c #B08E30",
"Y  c #B18F30",
"T  c #B28F30",
"R  c #B39031",
"E  c #B59131",
"W  c #B69232",
"Q  c #B69332",
"!  c #B99533",
"~  c #BB9633",
"^  c #BC9733",
"/  c #BD9834",
"(  c #BE9934",
")  c #C19B35",
"_  c #C49E36",
"`  c #C6A037",
"'  c #C7A137",
"]  c #C6A039",
"[  c #C9A238",
"{  c #CAA338",
"}  c #CCA439",
"|  c #CEA639",
" . c #D0A73A",
".. c #D0A83A",
"X. c #D2A93B",
"o. c #D8AE3D",
"O. c #DAB03D",
"+. c #DDB23E",
"@. c #DFB43F",
"#. c #DFB440",
"$. c #DFB441",
"%. c #DFB442",
"&. c #DFB443",
"*. c #DFB545",
"=. c #E0B443",
"-. c #E0B444",
";. c #E0B545",
":. c #E0B546",
">. c #E0B547",
",. c #E0B548",
"<. c #E0B549",
"1. c #E0B54A",
"2. c #E0B64A",
"3. c #E0B64B",
"4. c #E0B64C",
"5. c #E0B64D",
"6. c #E0B64E",
"7. c #E0B64F",
"8. c #E0B74F",
"9. c #E0B750",
"0. c #E0B751",
"q. c #E1B751",
"w. c #E0B753",
"e. c #E1B854",
"r. c #E1B855",
"t. c #E1B856",
"y. c #E1B857",
"u. c #E1B858",
"i. c #E1B959",
"p. c #E1B95B",
"a. c #E1BA5D",
"s. c #E1BA5E",
"d. c #E2BB62",
"f. c #E2BC65",
"g. c #E2BC66",
"h. c #E2BC67",
"j. c #E2BD69",
"k. c #E3BD6A",
"l. c #E3BD6B",
"z. c #E3BE6C",
"x. c #E3BE6D",
"c. c #E3BE6E",
"v. c #E3BE6F",
"b. c #E3BF70",
"n. c #E3BF71",
"m. c #E4C074",
"M. c #E4C076",
"N. c #E4C176",
"B. c #E4C27A",
"V. c #E5C37D",
"C. c #E5C482",
"Z. c #E6C585",
"A. c #E6C686",
"S. c #E6C789",
"D. c #E7C78A",
"F. c #E7C88D",
"G. c #E7C88E",
"H. c #E7C990",
"J. c #E8CA92",
"K. c #E8CA93",
"L. c #E8CB95",
"P. c #E8CC97",
"I. c #E9CC97",
"U. c #E9CC98",
"Y. c #E9CE9B",
"T. c #E9CE9D",
"R. c #EACF9F",
"E. c #EAD0A0",
"W. c #EAD0A1",
"Q. c #EBD2A5",
"!. c #EBD2A6",
"~. c #EBD3A7",
"^. c #EBD3A8",
"/. c #EBD3A9",
"(. c #ECD4AA",
"). c #ECD4AB",
"_. c #ECD5AC",
"`. c #ECD6AE",
"'. c #EDD6AF",
"]. c #EDD7B2",
"[. c #EDD8B3",
"{. c #EED9B5",
"}. c #EEDAB8",
"|. c #EEDAB9",
" X c #EFDBBB",
".X c #F0DDBE",
"XX c #F0DDBF",
"oX c #F0DEC1",
"OX c #F0DFC2",
"+X c #F1DFC3",
"@X c #F1E0C4",
"#X c #F1E0C5",
"$X c #F1E1C6",
"%X c #F1E1C7",
"&X c #F2E2C9",
"*X c #F2E3CA",
"=X c #F2E3CB",
"-X c #F3E5CE",
";X c #F3E5D0",
":X c #F3E6D0",
">X c #F4E6D2",
",X c #F5E9D6",
"<X c #F5EAD8",
"1X c #F5EADA",
"2X c #F6EBDA",
"3X c #F6EBDB",
"4X c #F6ECDC",
"5X c #F7EDDF",
"6X c #F8EFE2",
"7X c #F8F0E3",
"8X c #F8F0E4",
"9X c #F9F2E7",
"0X c #F9F2E8",
"qX c #FAF4EC",
"wX c #FBF7F1",
"eX c #FCF9F5",
"rX c #FDF9F5",
"tX c #FEFCFA",
"yX c white",
/* pixels */
"yXyXyXyXyXyXyXyXyXyXyXyXyXyXyXyXyXyXyXyXyXyXyXyXyXyXyXyXyXyXyXyXyXyXyXyXyXyXyXyXyXyXyXyXyXyXyXyXyXyXyXyXyXyXyXyXyXyXyXyXyXyXyXyX",
"yXyXyXyXyXyXyXyXyXyXyXyXyXyXyXyXyXyXyXyXyXyXyXyXyXyXyXyXyXyXyXyXyXyXyXyXyXyXyXyXyXyXyXyXyXyXyXyXyXyXyXyXyXyXyXyXyXyXyXyXyXyXyXyX",
"yXyXyXyXyXyXyXyXyXyXyXyXyXyXyXyXyXyXyXyXyXyXyXyXyXyXyXyXyXyXyXyXyXyXyXyXyXyXyXyXyXyXyXyXyXyXyXyXyXyXyXyXyXyXyXyXyXyXyXyXyXyXyXyX",
"yXyXyXyXyXyXyXyXyXyXyXyXyXyXyXyXyXyXyXyXyXyXyXyXyXyXyXyXyXyXyXyXyXyXyXyXyXyXyXyXyXyXyXyXyXyXyXyXyXyXyXyXyXyXyXyXyXyXyXyXyXyXyXyX",
"yXyXyXyXyXyXyXyXyXyXyXyXyXyXyXyXyXyXyXyXyXyXyXyXyXyXyXyXyXyXyXyXyXyXyXyXyXyXyXyXyXyXyXyXyXyXyXyXyXyXyXyXyXyXyXyXyXyXyXyXyXyXyXyX",
"yXyXyXyXyXyXyXyXyXyXyXyXyXyXyXyXyXyXyXyXyXyXyXyXyXyXyXyXyXyXyXyXyXyXyXyXyXyXyXyXyXyXyXyXyXyXyXyXyXyXyXyXyXyXyXyXyXyXyXyXyXyXyXyX",
"yXyXyXyXyXyXyXyXyXyXyXyXyXyXyXyXyXyXyXyXyXyXyXyXyXyXyXyXyXyXyXyXyXyXyXyXyXyXyXyXyXyXyXyXyXyXyXyXyXyXyXyXyXyXyXyXyXyXyXyXyXyXyXyX",
"yXyXyXyXyXyXyXyXyXyXyXyXyXyXyXyXyXyXyXyXyXyXyXyXyXyXyXyXyXyXyXyXyXyXyXyXyXyXyXyXyXyXyXyXyXyXyXyXyXyXyXyXyXyXyXyXyXyXyXyXyXyXyXyX",
"yXyXyXyXyXyXyXyXyXyXyXyXyXyXyXyXyXyXyXyXyXyXwX=XY.M.l.x.V.D.F.H.K.K.I.'.3XtXyXyXyXyXyXyXyXyXyXyXyXyXyXyXyXyXyXyXyXyXyXyXyXyXyXyX",
"yXyXyXyXyXyXyXyXyXyXyXyXyXyXyXyXyXyXyXyXrX[.s.=.@.@.@.@.@.@.@.@.@.@.@.@.5.R.6XtXyXyXyXyXyXyXyXyXyXyXyXyXyXyXyXyXyXyXyXyXyXyXyXyX",
"yXyXyXyXyXyXyXyXyXyXyXyXyXyXyXyXyXyXtX1XN.@.@.@.@.@.@.@.@.@.@.@.@.@.@.@.@.@.g.@XtXyXyXyXyXyXyXyXyXyXyXyXyXyXyXyXyXyXyXyXyXyXyXyX",
"yXyXyXyXyXyXyXyXyXyXyXyXyXyXyXyXyXqX).e.@.@.@.@.@.@.@.@.@.@.@.@.@.@.@.@.@.@.@.@.L.4XyXyXyXyXyXyXyXyXyXyXyXyXyXyXyXyXyXyXyXyXyXyX",
"yXyXyXyXyXyXyXyXyXyXyXyXyXyXyXyX,Xm.@.@.@.@.@.@.@.@.@.@.@.@.@.@.@.@.@.@.@.@.@.@.@.6.+XyXyXyXyXyXyXyXyXyXyXyXyXyXyXyXyXyXyXyXyXyX",
"yXyXyXyXyXyXyXyXyXyXyXyXyXyXyX,X@.@.@.@.@.@.@.@.@.@.@.@.@.@.@.@.@.@.@.@.@.@.@.@.@.@.@.}.wXyXyXyXyXyXyXyXyXyXyXyXyXyXyXyXyXyXyXyX",
"yXyXyXyXyXyXyXyXyXyXyXyXyXyXqXm.@.@.@.@.@.@.@.@.@.@.@.@.@.@.@.@.@.@.@.@.@.@.@.@.@.@.@.*.H.wXyXyXyXyXyXyXyXyXyXyXyXyXyXyXyXyXyXyX",
"yXyXyXyXyXyXyXyXyXyXyXyXyXtX`.@.@.@.@.@.@.@.@.@.@.@.@.@.@.@.@.@.@.@.@.@.@.@.@.@.@.@.@.@.@.!.tXyXyXyXyXyXyXyXyXyXyXyXyXyXyXyXyXyX",
"yXyXyXyXyXyXyXyXyXyXyXyXyX9Xk.@.@.@.@.@.@.@.@.@.@.@.@.@.@.@.@.@.@.@.@.@.@.@.@.@.@.@.@.@.@.@.L.9XyXyXyXyXyXyXyXyXyXyXyXyXyXyXyXyX",
"yXyXyXyXyXyXyXyXyXyXyXyXyX X@.@.@.@.@.@.@.@.@.@.@.@.@.@.@.@.@.@.@.@.@.@.@.@.@.@.@.@.@.@.@.@.@.B.qXyXyXyXyXyXyXyXyXyXyXyXyXyXyXyX",
"yXyXyXyXyXyXyXyXyXyXyXyXwXn.@.@.@.@.@.@.@.@.@.@.@.@.@.@.@.X.! I U ^  .+.@.@.@.@.@.@.@.@.@.@.@.@.~.tXyXyXyXyXyXyXyXyXyXyXyXyXyXyX",
"yXyXyXyXyXyXyXyXyXyXyXyX.X@.@.@.@.@.@.@.@.@.@.@.@.@.@.X.A d 8 , 2 r z ' +.@.@.@.@.@.@.@.#.@.@.@.@.@XtXyXyXyXyXyXyXyXyXyXyXyXyXyX",
"yXyXyXyXyXyXyXyXyXyXyXwXn.@.@.@.@.@.@.@.@.@.@.@.@.@.( h               D o.@.@.@.@.@.@.@.@.@.@.@.@.c.9XyXyXyXyXyXyXyXyXyXyXyXyXyX",
"yXyXyXyXyXyXyXyXyXyXyX#X@.@.@.@.@.@.@.@.@.@.@.@.@.Y 5                 D o.@.@.@.@.@.@.@.@.@.#.@.@.@. XyXyXyXyXyXyXyXyXyXyXyXyXyX",
"yXyXyXyXyXyXyXyXyXyXtXG.@.@.@.@.@.@.@.@.@.@.@.@.L             ; 2 r z ' +.@.@.@.@.@.@.@.@.@.@.@.@.@.n.wXyXyXyXyXyXyXyXyXyXyXyXyX",
"yXyXyXyXyXyXyXyXyXyX9Xh.@.@.@.@.@.@.@.@.@.@.@.L           y B I U ^  .+.@.@.@.@.@.@.@.@.@.@.@.@.@.@.@.#XyXyXyXyXyXyXyXyXyXyXyXyX",
"yXyXyXyXyXyXyXyXyXyX*X,.@.@.@.@.@.@.@.@.@.@.!           v | @.@.@.@.@.@.@.@.@.@.@.@.@.@.@.@.@.@.@.@.@.S.tXyXyXyXyXyXyXyXyXyXyXyX",
"yXyXyXyXyXyXyXyXyXyXQ.@.@.@.@.@.@.@.@.@.@.| s         F O.@.@.@.@.@.@.@.@.@.@.@.@.@.@.@.@.@.@.@.@.@.@.8.2XyXyXyXyXyXyXyXyXyXyXyX",
"yXyXyXyXyXyXyXyXyXwXm.@.@.@.@.@.@.@.@.@.O.b         N @.@.@.@.@.@.@.@.@.@.@.@.@.@.@.@.@.@.@.@.@.@.@.@.@.T.tXyXyXyXyXyXyXyXyXyXyX",
"yXyXyXyXyXyXyXyXyX>Xy.@.@.@.@.@.@.@.@.@./ 1       f X.@.@.@.@.@.@.@.@.@.@.@.@.@.@.@.@.@.@.@.@.@.@.@.@.@.j.9XyXyXyXyXyXyXyXyXyXyX",
"yXyXyXyXyXyXyXyXtX!.@.@.@.@.@.@.@.@.@.O.l       > W @.@.@.@.@.@.@.@.@.@.@.@.@.@.@.@.@.@.@.@.@.@.@.@.@.@.,.$XyXyXyXyXyXyXyXyXyXyX",
"yXyXyXyXyXyXyXyX9Xv.@.@.@.@.@.@.@.@.@.[ r       k O.@.@.@.@.@.@.@.@.@.@.@.@.@.@.@.@.@.@.@.@.@.@.@.@.@.@.@.U.tXyXyXyXyXyXyXyXyXyX",
"yXyXyXyXyXyXyXyX>Xu.@.@.@.@.@.@.@.@.@.F       - P @.@.@.@.@.@.@.@.@.@.@.@.@.@.@.@.@.@.@.@.@.@.@.@.@.@.@.@.j.9XyXyXyXyXyXyXyXyXyX",
"yXyXyXyXyXyXyXyX=X7.@.@.@.@.@.@.@.@.O.k       i X.@.@.@.@.@.@.@.@.@.@.@.@.@.@.@.@.@.@.@.@.@.@.@.@.@.#.@.@.<.*XyXyXyXyXyXyXyXyXyX",
"yXyXyXyXyXyXyXyX=X5.@.@.@.@.@.@.@.@...f       x @.@.@.@.@.@.@.@.@.@.@.@.@.@.@.@.@.@.@.@.@.@.@.@.@.@.-.@.@.$.].yXyXyXyXyXyXyXyXyX",
"yXyXyXyXyXyXyXyX=X5.@.@.@.@.@.@.@.@._ e     o N @.@.@.@.@.@.@.@.@.@.@.@.@.@.@.@.@.@.@.@.@.@.@.@.@.@.>.@.@.@.^.yXyXyXyXyXyXyXyXyX",
"yXyXyXyXyXyXyXyX=X5.@.@.@.@.@.@.@.@.E 4     & H @.@.@.@.@.@.@.@.@.@.@.@.@.@.@.@.@.@.@.@.@.@.@.@.@.@.;.@.@.@.E.yXyXyXyXyXyXyXyXyX",
"yXyXyXyXyXyXyXyX=X5.@.@.@.@.@.@.@.@.H %     < E @.@.@.@.@.@.@.@.@.@.#.@.@.@.@.@.@.@.@.@.@.@.@.@.@.@.@.@.@.@.^.yXyXyXyXyXyXyXyXyX",
"yXyXyXyXyXyXyXyX=X5.@.@.@.@.@.@.@.@.M +     = T @.@.@.@.@.@.@.@.@.@.&.@.@.@.@.@.@.@.@.@.@.@.@.@.@.@.@.@.@.#._.yXyXyXyXyXyXyXyXyX",
"yXyXyXyXyXyXyXyX=X4.@.@.@.@.@.@.@.@.V @       c @.@.@.@.@.@.@.@.@.@.@.:.@.@.@.@.@.@.@.@.@.@.@.@.@.@.@.@.@.#._.yXyXyXyXyXyXyXyXyX",
"yXyXyXyXyXyXyXyX=X2.@.@.@.@.@.@.@.@.` 6       : R @.@.#.@.@.@.@.@.@.@.@.@.@.@.@.@.@.@.@.@.@.@.@.@.@.@.@.@.#./.yXyXyXyXyXyXyXyXyX",
"yXyXyXyXyXyXyXyX,X6.@.@.@.@.@.@.@.@.@.G         9 ~ @.@.@.@.@.@.@.@.@.@.@.@.@.@.@.@.@.@.@.@.@.@.@.@.@.@.@.%.}.yXyXyXyXyXyXyXyXyX",
"yXyXyXyXyXyXyXyXwXf.@.@.@.@.@.@.@.@.@.O.v         7 Q @.@.@.@.@.@.@.@.@.@.@.@.@.@.@.@.@.@.@.@.@.@.@.@.@.@.r.8XyXyXyXyXyXyXyXyXyX",
"yXyXyXyXyXyXyXyXyX!.@.@.@.@.@.@.@.@.@.@.| g         > S } } _ E H N n Z { @.@.@.@.@.@.@.@.@.@.@.@.@.@.@.@.W.yXyXyXyXyXyXyXyXyXyX",
"yXyXyXyXyXyXyXyXyXXX%.@.@.@.@.@.@.@.@.@.@.] 0         = t p w 4 & O X * u { @.@.@.@.@.@.@.@.@.@.@.@.@.@.a.8XyXyXyXyXyXyXyXyXyXyX",
"yXyXyXyXyXyXyXyXyX|.*.@.@.@.@.@.@.@.@.@.@.@.J $                           K @.@.@.@.@.@.@.@.@.@.@.@.@.6.:XyXyXyXyXyXyXyXyXyXyXyX",
"yXyXyXyXyXyXyXyXyX+X:.@.@.@.@.@.@.@.@.@.@.@.@.J q                         ( @.@.@.@.@.@.@.@.@.@.@.@.@.-XyXyXyXyXyXyXyXyXyXyXyXyX",
"yXyXyXyXyXyXyXyXyX,Xp.@.@.@.@.@.@.@.@.@.@.@.@.@.| b 3 # . . O & 4 w a j I O.@.@.@.@.@.@.@.@.@.@.@.2.*XyXyXyXyXyXyXyXyXyXyXyXyXyX",
"yXyXyXyXyXyXyXyXyXwXC.@.@.@.@.@.@.@.@.@.@.@.@.@.@.O.) C n m N H E _ } ..O.@.@.@.@.@.@.@.@.@.@.@.3.;XyXyXyXyXyXyXyXyXyXyXyXyXyXyX",
"yXyXyXyXyXyXyXyXyXyX<Xe.@.@.@.@.@.@.@.@.@.@.@.@.@.@.@.@.@.@.@.@.@.@.@.@.@.@.@.@.@.@.@.@.@.@.@.@.-XyXyXyXyXyXyXyXyXyXyXyXyXyXyXyX",
"yXyXyXyXyXyXyXyXyXyXyXOX@.@.@.@.@.@.@.@.@.@.@.@.@.@.@.@.@.@.@.@.@.@.@.@.@.@.@.@.@.@.@.@.@.@.@.&XyXyXyXyXyXyXyXyXyXyXyXyXyXyXyXyX",
"yXyXyXyXyXyXyXyXyXyXyXtXJ.@.@.@.@.@.@.@.@.@.@.@.@.@.@.@.@.@.@.@.@.@.@.@.@.@.@.@.@.@.@.@.@.q.-XyXyXyXyXyXyXyXyXyXyXyXyXyXyXyXyXyX",
"yXyXyXyXyXyXyXyXyXyXyXyX7Xd.@.@.@.@.@.@.@.@.@.@.@.@.@.@.@.@.@.@.@.@.@.@.@.@.@.@.@.@.@.@.N.4XyXyXyXyXyXyXyXyXyXyXyXyXyXyXyXyXyXyX",
"yXyXyXyXyXyXyXyXyXyXyXyXyX0XQ.<.@.@.@.@.@.@.@.@.@.@.@.@.@.@.@.@.@.@.@.@.@.@.@.@.@.@.@.A.8XyXyXyXyXyXyXyXyXyXyXyXyXyXyXyXyXyXyXyX",
"yXyXyXyXyXyXyXyXyXyXyXyXyXyXyX%X@.@.@.@.@.@.@.@.@.@.@.@.@.@.@.@.@.@.@.@.@.@.@.@.@.@.E.qXyXyXyXyXyXyXyXyXyXyXyXyXyXyXyXyXyXyXyXyX",
"yXyXyXyXyXyXyXyXyXyXyXyXyXyXyXyX#X@.@.@.@.@.@.@.@.@.@.@.@.@.@.@.@.@.@.@.@.@.@.@.w.{.eXyXyXyXyXyXyXyXyXyXyXyXyXyXyXyXyXyXyXyXyXyX",
"yXyXyXyXyXyXyXyXyXyXyXyXyXyXyXyXyX-Xt.@.@.@.@.@.@.@.@.@.@.@.@.@.@.@.@.@.@.@.9.P.2XtXyXyXyXyXyXyXyXyXyXyXyXyXyXyXyXyXyXyXyXyXyXyX",
"yXyXyXyXyXyXyXyXyXyXyXyXyXyXyXyXyXyX4XZ.i.@.@.@.@.@.@.@.@.@.@.@.@.@.@.@.0.P.2XtXyXyXyXyXyXyXyXyXyXyXyXyXyXyXyXyXyXyXyXyXyXyXyXyX",
"yXyXyXyXyXyXyXyXyXyXyXyXyXyXyXyXyXyXyXwX>X!.k.@.@.@.@.@.@.@.@.@.@.1.b.(.5XtXyXyXyXyXyXyXyXyXyXyXyXyXyXyXyXyXyXyXyXyXyXyXyXyXyXyX",
"yXyXyXyXyXyXyXyXyXyXyXyXyXyXyXyXyXyXyXyXyXtX9XoXG.k.u.7.5.7.u.z.U.*XwXyXyXyXyXyXyXyXyXyXyXyXyXyXyXyXyXyXyXyXyXyXyXyXyXyXyXyXyXyX",
"yXyXyXyXyXyXyXyXyXyXyXyXyXyXyXyXyXyXyXyXyXyXyXyXtX9X>X=X=X=X>X9XtXyXyXyXyXyXyXyXyXyXyXyXyXyXyXyXyXyXyXyXyXyXyXyXyXyXyXyXyXyXyXyX",
"yXyXyXyXyXyXyXyXyXyXyXyXyXyXyXyXyXyXyXyXyXyXyXyXyXyXyXyXyXyXyXyXyXyXyXyXyXyXyXyXyXyXyXyXyXyXyXyXyXyXyXyXyXyXyXyXyXyXyXyXyXyXyXyX",
"yXyXyXyXyXyXyXyXyXyXyXyXyXyXyXyXyXyXyXyXyXyXyXyXyXyXyXyXyXyXyXyXyXyXyXyXyXyXyXyXyXyXyXyXyXyXyXyXyXyXyXyXyXyXyXyXyXyXyXyXyXyXyXyX",
"yXyXyXyXyXyXyXyXyXyXyXyXyXyXyXyXyXyXyXyXyXyXyXyXyXyXyXyXyXyXyXyXyXyXyXyXyXyXyXyXyXyXyXyXyXyXyXyXyXyXyXyXyXyXyXyXyXyXyXyXyXyXyXyX",
"yXyXyXyXyXyXyXyXyXyXyXyXyXyXyXyXyXyXyXyXyXyXyXyXyXyXyXyXyXyXyXyXyXyXyXyXyXyXyXyXyXyXyXyXyXyXyXyXyXyXyXyXyXyXyXyXyXyXyXyXyXyXyXyX",
"yXyXyXyXyXyXyXyXyXyXyXyXyXyXyXyXyXyXyXyXyXyXyXyXyXyXyXyXyXyXyXyXyXyXyXyXyXyXyXyXyXyXyXyXyXyXyXyXyXyXyXyXyXyXyXyXyXyXyXyXyXyXyXyX"
};
