/* XPM */
static char *result[] = {
/* columns rows colors chars-per-pixel */
"64 64 111 2 ",
"   c black",
".  c #040404",
"X  c gray2",
"o  c #0C0C0C",
"O  c gray5",
"+  c #161616",
"@  c #191919",
"#  c gray11",
"$  c gray15",
"%  c #2A2A2A",
"&  c gray17",
"*  c gray18",
"=  c gray19",
"-  c gray22",
";  c gray24",
":  c gray27",
">  c gray28",
",  c #4B4B4B",
"<  c gray30",
"1  c #4E4E4E",
"2  c gray31",
"3  c #515151",
"4  c #535353",
"5  c #555555",
"6  c #585858",
"7  c #5A5A5A",
"8  c #606060",
"9  c #626262",
"0  c gray39",
"q  c #656565",
"w  c gray40",
"e  c #686868",
"r  c DimGray",
"t  c #6A6A6A",
"y  c #717171",
"u  c #727272",
"i  c #747474",
"p  c gray47",
"a  c #7C7C7C",
"s  c #7E7E7E",
"d  c gray50",
"f  c #808080",
"g  c #818181",
"h  c gray51",
"j  c #8B8B8B",
"k  c #8D8D8D",
"l  c gray57",
"z  c #929292",
"x  c #959595",
"c  c #979797",
"v  c #989898",
"b  c gray61",
"n  c gray62",
"m  c #A0A0A0",
"M  c gray63",
"N  c gray64",
"B  c #A4A4A4",
"V  c gray65",
"C  c #A7A7A7",
"Z  c gray66",
"A  c #A9A9A9",
"S  c #AAAAAA",
"D  c gray67",
"F  c gray68",
"G  c #AEAEAE",
"H  c gray69",
"J  c #B2B2B2",
"K  c gray70",
"L  c #B4B4B4",
"P  c #C0C0C0",
"I  c #C1C1C1",
"U  c gray76",
"Y  c #C3C3C3",
"T  c #C5C5C5",
"R  c #C6C6C6",
"E  c gray78",
"W  c #C8C8C8",
"Q  c gray79",
"!  c #CACACA",
"~  c #CECECE",
"^  c gray81",
"/  c #D0D0D0",
"(  c gray82",
")  c #D5D5D5",
"_  c gray85",
"`  c gray86",
"'  c gainsboro",
"]  c gray87",
"[  c gray88",
"{  c #E1E1E1",
"}  c #E6E6E6",
"|  c #E7E7E7",
" . c gray91",
".. c #E9E9E9",
"X. c #EAEAEA",
"o. c gray92",
"O. c #ECECEC",
"+. c gray93",
"@. c #EEEEEE",
"#. c #F1F1F1",
"$. c gray95",
"%. c gray96",
"&. c #F6F6F6",
"*. c gray97",
"=. c #F9F9F9",
"-. c gray98",
";. c #FBFBFB",
":. c gray99",
">. c #FDFDFD",
",. c #FEFEFE",
"<. c white",
/* pixels */
"<.<.<.<.<.<.<.<.<.<.<.<.<.<.<.<.<...w     . V <.<.<.<.<.<.<.<.<.<.<.<.<.<.<.<.l       l <.<.<.<.<.<.<.<.<.<.<.<.<.<.<.<.<.<.<.<.",
"<.<.<.<.<.<.<.<.<.<.<.<.<.<.<.<.<...w     . V <.<.<.<.<.<.<.<.<.<.<.<.<.<.<.<.l       l <.<.<.<.<.<.<.<.<.<.<.<.<.<.<.<.<.<.<.<.",
"<.<.<.<.<.<.<.<.<.<.<.<.<.<.<.<.<...w     . V <.<.<.<.<.<.<.<.<.<.<.<.<.<.<.<.l       l <.<.<.<.<.<.<.<.<.<.<.<.<.<.<.<.<.<.<.<.",
"<.<.<.<.<.<.<.<.<.<.<.<.<.<.<.<.<...w     . V <.<.<.<.<.<.<.<.<.<.<.9 | <.<.<.l       l <.<.<.<.<.<.<.<.<.<.<.<.<.<.<.<.<.<.<.<.",
"<.<.<.<.<.<.<.<.<.<.<.<.<.<.<.<.<...w     . V <.<.<.<.u     2 m *.<.9 | <.<.<.l       l <.<.<.<.<.<.<.<.<.<.<.<.<.<.<.<.<.<.<.<.",
"<.<.<.<.<.<.<.<.<.<.<.<.<.<.<.<.<...w     . V <.<.<.<.u ( <.#.s S <.9 | <.<.<.l       k <.<.<.<.<.<.<.<.<.<.<.<.<.<.<.<.<.<.<.<.",
"<.<.<.<.<.<.<.<.<.<.<.<.<.<.<.<.<...w     . V <.<.<.<.u ( <.<.I f <.9 | <.<.<.x       f =.<.<.<.<.<.<.<.<.<.<.<.<.<.<.<.<.<.<.<.",
"<.<.<.<.<.<.<.<.<.<.<.<.<.<.<.<.<...w     . V <.<.<.<.u ( <.#.s A <.9 | <.<.<.M       i @.<.<.<.<.<.<.<.<.<.<.<.<.<.<.<.<.<.<.<.",
"<.<.<.<.<.<.<.<.<.<.<.<.<.<.<.<.<...w     . V <.<.<.<.u     < n &.<.9 | <.<.<.V .     e ..<.<.<.<.<.<.<.<.<.<.<.<.<.<.<.<.<.<.<.",
"<.<.<.<.<.<.<.<.<.<.<.<.<.<.<.<.<...w     . V <.<.<.<.u ( <.<.<.<.<.9 | <.<.<.V .     w ..<.<.<.<.<.<.<.<.<.<.<.<.<.<.<.<.<.<.<.",
"<.<.<.<.<.<.<.<.<.<.<.<.<.<.<.<.<...w     . V <.<.<.<.u ( <.<.<.<.<.9 | <.<.<.V .     w ..<.<.<.<.<.<.<.<.<.<.<.<.<.<.<.<.<.<.<.",
"<.<.<.<.<.<.<.<.<.<.<.<.<.<.<.<.<...w     . V <.<.<.<.u ( <.<.<.<.<.9 | <.<.<.V .     w ..<.<.<.<.<.<.<.<.<.<.<.<.<.<.<.<.<.<.<.",
"<.<.<.<.<.<.<.<.<.<.<.<.<.<.<.<.<...w     . V <.<.<.<.u ( <.<.<.<.<.9 | <.<.<.V .     w ..<.<.<.<.<.<.<.<.<.<.<.<.<.<.<.<.<.<.<.",
"<.<.<.<.<.<.<.<.<.<.<.<.<.<.<.<.<...w     . V <.<.<.<.<.<.<.<.<.<.<.<.<.<.<.<.V .     w ..<.<.<.<.<.<.<.<.<.<.<.<.<.<.<.<.<.<.<.",
"<.<.<.<.<.<.<.<.<.<.<.<.<.<.<.<.<...w     . V <.<.<.<.<.<.<.<.<.<.<.<.<.<.<.<.V .     w ..<.<.<.<.<.<.<.<.<.<.<.<.<.<.<.<.<.<.<.",
"<.<.<.<.<.<.<.<.<.<.<.<.<.<.<.<.<...w     . V <.<.<.<.<.<.<.<.<.<.<.<.<.<.<.<.V .     w ..<.<.<.<.<.<.<.<.<.<.<.<.<.<.<.<.<.<.<.",
"<.<.<.<.<.<.<.<.<.<.<.<.<.<.<.<.<...w     . V <.<.<.<.<.<.<.<.<.<.<.<.<.<.<.<.V .     w ..<.<.<.<.<.<.<.<.<.<.<.<.<.<.<.<.<.<.<.",
"<.<.<.<.<.<.<.<.<.<.<.<.<.<.<.<.<...w     . V <.<.<.<.<.<.<.<.<.<.<.<.<.<.<.<.V .     w ..<.<.<.<.<.<.<.<.<.<.<.<.<.<.<.<.<.<.<.",
"<.<.<.<.<.<.<.<.<.<.<.<.<.<.<.<.<...w     . V <.<.<.<.<.<.<.<.<.<.<.<.<.<.<.<.V .     w ..<.<.<.<.<.<.<.<.<.<.<.<.<.<.<.<.<.<.<.",
"<.<.<.<.<.<.<.<.<.<.<.<.<.<.<.<.<...w     . V <.<.<.<.<.<.<.<.<.<.<.<.<.<.<.<.V .     w ..<.<.<.<.<.<.<.<.<.<.<.<.<.<.<.<.<.<.<.",
"<.<.<.<.<.<.<.<.<.<.<.<.<.<.<.<.<...w     . V <.<.<.<.<.<.<.<.<.<.<.<.<.<.<.<.V .     w ..<.<.<.<.<.<.<.<.<.<.<.<.<.<.<.<.<.<.<.",
"<.<.<.<.<.<.<.<.<.<.<.<.<.<.<.<.<...e     . V <.<.<.<.a   * d  .<.<.<.<.<.<.<.V .     w ..<.<.<.<.<.<.<.<.<.<.<.<.<.<.<.<.<.<.<.",
"<.<.<.<.<.<.<.<.<.<.<.<.<.<.<.<.<.@.i       M <.<.<.<.<.<.;.! r ,.<.<.<.<.<.<.V .     w ..<.<.<.<.<.<.<.<.<.<.<.<.<.<.<.<.<.<.<.",
"<.<.<.<.<.<.<.<.<.<.<.<.<.<.<.<.<.=.f       x <.<.<.<.<.<.<.<.q +.<.<.<.<.<.<.V .     w ..<.<.<.<.<.<.<.<.<.<.<.<.<.<.<.<.<.<.<.",
"<.<.<.<.<.<.<.<.<.<.<.<.<.<.<.<.<.<.k       l <.<.<.<.! t %     [ <.<.<.<.<.<.V .     w ..<.<.<.<.<.<.<.<.<.<.<.<.<.<.<.<.<.<.<.",
"<.<.<.<.<.<.<.<.<.<.<.<.<.<.<.<.<.<.l       l <.<.<.+.> } ;.<.0 ] <.<.<.<.<.<.V .     w ..<.<.<.<.<.<.<.<.<.<.<.<.<.<.<.<.<.<.<.",
"<.<.<.<.<.<.<.<.<.<.<.<.<.<.<.<.<.<.l       l <.<.<. .< @.-.Y   ] <.<.<.<.<.<.V .     w ..<.<.<.<.<.<.<.<.<.<.<.<.<.<.<.<.<.<.<.",
"<.<.<.<.<.<.<.<.<.<.<.<.<.<.<.<.<.<.l       l <.<.<.<.K : 6 D u ] <.<.<.<.<.<.V .     w ..<.<.<.<.<.<.<.<.<.<.<.<.<.<.<.<.<.<.<.",
"<.<.<.<.<.<.<.<.<.<.<.<.<.<.<.<.<.<.l       l <.<.<.<.<.<.<.<.<.<.<.<.<.<.<.<.V .     w ..<.<.<.<.<.<.<.<.<.<.<.<.<.<.<.<.<.<.<.",
"<.<.<.<.<.<.<.<.<.<.<.<.<.<.<.<.<.<.l       l <.<.<.<.<.<.<.<.<.<.<.<.<.<.<.<.V .     w ..<.<.<.<.<.<.<.<.<.<.<.<.<.<.<.<.<.<.<.",
"<.<.<.<.<.<.<.<.<.<.<.<.<.<.<.<.<.<.l       l <.<.<.<.<.<.<.<.<.<.<.<.<.<.<.<.V .     w ..<.<.<.<.<.<.<.<.<.<.<.<.<.<.<.<.<.<.<.",
"<.<.<.<.<.<.<.<.<.<.<.<.<.<.<.<.<.<.l       l <.<.<.<.<.<.<.<.<.<.<.<.<.<.<.<.V .     w ..<.<.<.<.<.<.<.<.<.<.<.<.<.<.<.<.<.<.<.",
"<.<.<.<.<.<.<.<.<.<.<.<.<.<.<.<.<.<.l       l <.<.<.<.<.<.<.<.<.<.<.<.<.<.<.<.V .     w ..<.<.<.<.<.<.<.<.<.<.<.<.<.<.<.<.<.<.<.",
"<.<.<.<.<.<.<.<.<.<.<.<.<.<.<.<.<.<.l       l <.<.<.<.<.<.<.<.<.<.<.<.<.<.<.<.V .     w ..<.<.<.<.<.<.<.<.<.<.<.<.<.<.<.<.<.<.<.",
"<.<.<.<.<.<.<.<.<.<.<.<.<.<.<.<.<.<.l       l <.<.<.<.<.<.<.<.<.<.<.<.<.<.<.<.V .     w ..<.<.<.<.<.<.<.<.<.<.<.<.<.<.<.<.<.<.<.",
"<.<.<.<.<.<.<.<.<.<.<.<.<.<.<.<.<.<.l       l <.<.<.<.<.<.<.<.<.<.<.<.<.<.<.<.V .     w ..<.<.<.<.<.<.<.<.<.<.<.<.<.<.<.<.<.<.<.",
"<.<.<.<.<.<.<.<.<.<.<.<.<.<.<.<.<.<.l       l <.<.<.Y v <.<.<.F H <.<.<.<.<.<.V X     9 ..<.<.<.<.<.<.<.<.<.<.<.<.<.<.<.<.<.<.<.",
"<.<.<.<.<.<.<.<.<.<.<.<.<.<.<.<.<.<.l       l <.<.<.%.- &.<.:., | <.<.<.<.<.<.F o     1 { <.<.<.<.<.<.<.<.<.<.<.<.<.<.<.<.<.<.<.",
"<.<.<.<.<.<.<.<.<.<.<.<.<.<.<.<.<.<.l       l <.<.<.<.c R <.) y <.<.<.<.<.<.<.P @     ; ^ <.<.<.<.<.<.<.<.<.<.<.<.<.<.<.<.<.<.<.",
"<.<.<.<.<.<.<.<.<.<.<.<.<.<.<.<.<.<.l       l <.<.<.<._ p <.z P <.<.<.<.<.<.<.E &     = E <.<.<.<.<.<.<.<.<.<.<.<.<.<.<.<.<.<.<.",
"<.<.<.<.<.<.<.<.<.<.<.<.<.<.<.<.<.<.l       l <.<.<.<.>.5 ' $ $.<.<.<.<.<.<.<.E *     * E <.<.<.<.<.<.<.<.<.<.<.<.<.<.<.<.<.<.<.",
"<.<.<.<.<.<.<.<.<.<.<.<.<.<.<.<.<.<.l       l <.<.<.<.<.L 3 j <.<.<.<.<.<.<.<.E *     * E <.<.<.<.<.<.<.<.<.<.<.<.<.<.<.<.<.<.<.",
"<.<.<.<.<.<.<.<.<.<.<.<.<.<.<.<.<.<.l       l <.<.<.<.<.O.  / <.<.<.<.<.<.<.<.E *     * E <.<.<.<.<.<.<.<.<.<.<.<.<.<.<.<.<.<.<.",
"<.<.<.<.<.<.<.<.<.<.<.<.<.<.<.<.<.<.l       l <.<.<.<.<...- -.<.<.<.<.<.<.<.<.E *     * E <.<.<.<.<.<.<.<.<.<.<.<.<.<.<.<.<.<.<.",
"<.<.<.<.<.<.<.<.<.<.<.<.<.<.<.<.<.<.l       l <.<.<.<.,.N Z <.<.<.<.<.<.<.<.<.E *     * E <.<.<.<.<.<.<.<.<.<.<.<.<.<.<.<.<.<.<.",
"<.<.<.<.<.<.<.<.<.<.<.<.<.<.<.<.<.<.l       l <.<.<.-.  y $.<.<.<.<.<.<.<.<.<.E *     * E <.<.<.<.<.<.<.<.<.<.<.<.<.<.<.<.<.<.<.",
"<.<.<.<.<.<.<.<.<.<.<.<.<.<.<.<.<.<.l       l <.<.<.<.<.<.<.<.<.<.<.<.<.<.<.<.E *     * E <.<.<.<.<.<.<.<.<.<.<.<.<.<.<.<.<.<.<.",
"<.<.<.<.<.<.<.<.<.<.<.<.<.<.<.<.<.<.l       l <.<.<.<.<.<.<.<.<.<.<.<.<.<.<.<.E *     * E <.<.<.<.<.<.<.<.<.<.<.<.<.<.<.<.<.<.<.",
"<.<.<.<.<.<.<.<.<.<.<.<.<.<.<.<.<.<.l       l <.<.<.<.<.<.<.<.<.<.<.<.<.<.<.<.E *     * E <.<.<.<.<.<.<.<.<.<.<.<.<.<.<.<.<.<.<.",
"<.<.<.<.<.<.<.<.<.<.<.<.<.<.<.<.<.<.l       l <.<.<.<.<.<.<.<.<.<.<.<.<.<.<.<.E *     * E <.<.<.<.<.<.<.<.<.<.<.<.<.<.<.<.<.<.<.",
"<.<.<.<.<.<.<.<.<.<.<.<.<.<.<.<.<.<.l       l <.<.<.<.<.<.<.<.<.<.<.<.<.<.<.<.E *     * E <.<.<.<.<.<.<.<.<.<.<.<.<.<.<.<.<.<.<.",
"<.<.<.<.<.<.<.<.<.<.<.<.<.<.<.<.<.<.l       l <.<.<.<.%.b , 8 T <.<.5 U u < <.E *     * E <.<.<.<.<.<.<.<.<.<.<.<.<.<.<.<.<.<.<.",
"<.<.<.<.<.<.<.<.<.<.<.<.<.<.<.<.<.<.l       l <.<.<.<.h G *.+.t ` <.5 h #.<.<.E *     * E <.<.<.<.<.<.<.<.<.<.<.<.<.<.<.<.<.<.<.",
"<.<.<.<.<.<.<.<.<.<.<.<.<.<.<.<.<.<.l       l <.<.<...> ,.<.<.Q B <.5 ' <.<.<.E *     * E <.<.<.<.<.<.<.<.<.<.<.<.<.<.<.<.<.<.<.",
"<.<.<.<.<.<.<.<.<.<.<.<.<.<.<.<.<.<.l       l <.<.<._   # + O   j <.5 X.<.<.<.E *     * E <.<.<.<.<.<.<.<.<.<.<.<.<.<.<.<.<.<.<.",
"<.<.<.<.<.<.<.<.<.<.<.<.<.<.<.<.<.<.l       l <.<.<. .7 <.<.<.<.<.<.5 o.<.<.<.E *     * E <.<.<.<.<.<.<.<.<.<.<.<.<.<.<.<.<.<.<.",
"<.<.<.<.<.<.<.<.<.<.<.<.<.<.<.<.<.<.l       l <.<.<.,.g J %.&.~ W <.5 o.<.<.<.E *     * E <.<.<.<.<.<.<.<.<.<.<.<.<.<.<.<.<.<.<.",
"<.<.<.<.<.<.<.<.<.<.<.<.<.<.<.<.<.<.l       l <.<.<.<.%.M 4 4 C &.<.5 o.<.<.<.E *     * E <.<.<.<.<.<.<.<.<.<.<.<.<.<.<.<.<.<.<.",
"<.<.<.<.<.<.<.<.<.<.<.<.<.<.<.<.<.<.l       l <.<.<.<.<.<.<.<.<.<.<.<.<.<.<.<.E *     * E <.<.<.<.<.<.<.<.<.<.<.<.<.<.<.<.<.<.<.",
"<.<.<.<.<.<.<.<.<.<.<.<.<.<.<.<.<.<.l       l <.<.<.<.<.<.<.<.<.<.<.<.<.<.<.<.E *     * E <.<.<.<.<.<.<.<.<.<.<.<.<.<.<.<.<.<.<.",
"<.<.<.<.<.<.<.<.<.<.<.<.<.<.<.<.<.<.l       l <.<.<.<.<.<.<.<.<.<.<.<.<.<.<.<.E *     * E <.<.<.<.<.<.<.<.<.<.<.<.<.<.<.<.<.<.<.",
"<.<.<.<.<.<.<.<.<.<.<.<.<.<.<.<.<.<.l       l <.<.<.<.<.<.<.<.<.<.<.<.<.<.<.<.E *     * E <.<.<.<.<.<.<.<.<.<.<.<.<.<.<.<.<.<.<.",
"<.<.<.<.<.<.<.<.<.<.<.<.<.<.<.<.<.<.l       l <.<.<.<.<.<.<.<.<.<.<.<.<.<.<.<.E *     * E <.<.<.<.<.<.<.<.<.<.<.<.<.<.<.<.<.<.<.",
"<.<.<.<.<.<.<.<.<.<.<.<.<.<.<.<.<.<.l       l <.<.<.<.<.<.<.<.<.<.<.<.<.<.<.<.E *     * E <.<.<.<.<.<.<.<.<.<.<.<.<.<.<.<.<.<.<."
};
