/* XPM */
static char *result[] = {
/* columns rows colors chars-per-pixel */
"64 64 68 1 ",
"  c black",
". c gray11",
"X c #2A2A2A",
"o c #323232",
"O c #353535",
"+ c gray24",
"@ c gray26",
"# c #494949",
"$ c #565656",
"% c gray35",
"& c #646464",
"* c #6A6A6A",
"= c gray42",
"- c #6D6D6D",
"; c gray48",
": c #7C7C7C",
"> c #7E7E7E",
", c #848484",
"< c #898989",
"1 c #8B8B8B",
"2 c #8D8D8D",
"3 c #909090",
"4 c gray61",
"5 c gray62",
"6 c #A4A4A4",
"7 c gray65",
"8 c #AAAAAA",
"9 c gray67",
"0 c #AFAFAF",
"q c #B1B1B1",
"w c gray70",
"e c gray71",
"r c #B6B6B6",
"t c #BCBCBC",
"y c gray",
"u c #C0C0C0",
"i c #C3C3C3",
"p c gray78",
"a c #C8C8C8",
"s c gray79",
"d c #CECECE",
"f c #D2D2D2",
"g c #D5D5D5",
"h c #D7D7D7",
"j c gray86",
"k c gray88",
"l c #E1E1E1",
"z c gray89",
"x c gray90",
"c c #E7E7E7",
"v c gray91",
"b c #E9E9E9",
"n c #EAEAEA",
"m c gray93",
"M c #EEEEEE",
"N c #EFEFEF",
"B c gray94",
"V c #F1F1F1",
"C c #F3F3F3",
"Z c #F4F4F4",
"A c gray96",
"S c gray97",
"D c #F8F8F8",
"F c gray98",
"G c #FBFBFB",
"H c gray99",
"J c #FDFDFD",
"K c white",
/* pixels */
": 4M cKGx;  B: B:XF: 4dl: 4M cKGx;  B: B:XF: 4dl: 4M cKGx;  B: B",
"q ad   O9M. B: B: kq a7yq ad   O9M. B: B: kq a7yq ad   O9M. B: B",
"h b6     N- B: B: th b*3h b6     N- B: B: th b*3h b6     N- B: B",
"Z#J& 9mGKK< B: B: 1A#C @Z#J& 9mGKK< B: B: 1A#C @Z#J& 9mGKK< B: B",
"veV -S>o N2 B: B: OHeg  veV -S>o N2 B: B: OHeg  veV -S>o N2 B: B",
"pZf ;A=+wK2 B: B:  zZ0  pZf ;A=+wK2 B: B:  zZ0  pZf ;A=+wK2 B: B",
"4K8  iDCsn2 B: B:  uK;  4K8  iDCsn2 B: B:  uK;  4K8  iDCsn2 B: B",
"                                                                ",
"                                                                ",
"                                                                ",
"                                                                ",
"                                                                ",
"            B: B:                   B: B:                   B: B",
"   M5       B: B:rj   Mj   M5       B: B:rj   Mj   M5       B: B",
". $K%       B: B:,D. $BZ. $K%       B: B:,D. $BZ. $K%       B: B",
": 4M cKGx;  B: B:XF: 4dl: 4M cKGx;  B: B:XF: 4dl: 4M cKGx;  B: B",
"q ad   O9M. B: B: kq a7yq ad   O9M. B: B: kq a7yq ad   O9M. B: B",
"h b6     N- B: B: th b*3h b6     N- B: B: th b*3h b6     N- B: B",
"Z#J& 9mGKK< B: B: 1A#C @Z#J& 9mGKK< B: B: 1A#C @Z#J& 9mGKK< B: B",
"veV -S>o N2 B: B: OHeg  veV -S>o N2 B: B: OHeg  veV -S>o N2 B: B",
"pZf ;A=+wK2 B: B:  zZ0  pZf ;A=+wK2 B: B:  zZ0  pZf ;A=+wK2 B: B",
"4K8  iDCsn2 B: B:  uK;  4K8  iDCsn2 B: B:  uK;  4K8  iDCsn2 B: B",
"                                                                ",
"                                                                ",
"                                                                ",
"                                                                ",
"                                                                ",
"            B: B:                   B: B:                   B: B",
"   M5       B: B:rj   Mj   M5       B: B:rj   Mj   M5       B: B",
". $K%       B: B:,D. $BZ. $K%       B: B:,D. $BZ. $K%       B: B",
": 4M cKGx;  B: B:XF: 4dl: 4M cKGx;  B: B:XF: 4dl: 4M cKGx;  B: B",
"q ad   O9M. B: B: kq a7yq ad   O9M. B: B: kq a7yq ad   O9M. B: B",
"h b6     N- B: B: th b*3h b6     N- B: B: th b*3h b6     N- B: B",
"Z#J& 9mGKK< B: B: 1A#C @Z#J& 9mGKK< B: B: 1A#C @Z#J& 9mGKK< B: B",
"veV -S>o N2 B: B: OHeg  veV -S>o N2 B: B: OHeg  veV -S>o N2 B: B",
"pZf ;A=+wK2 B: B:  zZ0  pZf ;A=+wK2 B: B:  zZ0  pZf ;A=+wK2 B: B",
"4K8  iDCsn2 B: B:  uK;  4K8  iDCsn2 B: B:  uK;  4K8  iDCsn2 B: B",
"                                                                ",
"                                                                ",
"                                                                ",
"                                                                ",
"                                                                ",
"            B: B:                   B: B:                   B: B",
"   M5       B: B:rj   Mj   M5       B: B:rj   Mj   M5       B: B",
". $K%       B: B:,D. $BZ. $K%       B: B:,D. $BZ. $K%       B: B",
": 4M cKGx;  B: B:XF: 4dl: 4M cKGx;  B: B:XF: 4dl: 4M cKGx;  B: B",
"q ad   O9M. B: B: kq a7yq ad   O9M. B: B: kq a7yq ad   O9M. B: B",
"h b6     N- B: B: th b*3h b6     N- B: B: th b*3h b6     N- B: B",
"Z#J& 9mGKK< B: B: 1A#C @Z#J& 9mGKK< B: B: 1A#C @Z#J& 9mGKK< B: B",
"veV -S>o N2 B: B: OHeg  veV -S>o N2 B: B: OHeg  veV -S>o N2 B: B",
"pZf ;A=+wK2 B: B:  zZ0  pZf ;A=+wK2 B: B:  zZ0  pZf ;A=+wK2 B: B",
"4K8  iDCsn2 B: B:  uK;  4K8  iDCsn2 B: B:  uK;  4K8  iDCsn2 B: B",
"                                                                ",
"                                                                ",
"                                                                ",
"                                                                ",
"                                                                ",
"            B: B:                   B: B:                   B: B",
"   M5       B: B:rj   Mj   M5       B: B:rj   Mj   M5       B: B",
". $K%       B: B:,D. $BZ. $K%       B: B:,D. $BZ. $K%       B: B",
": 4M cKGx;  B: B:XF: 4dl: 4M cKGx;  B: B:XF: 4dl: 4M cKGx;  B: B",
"q ad   O9M. B: B: kq a7yq ad   O9M. B: B: kq a7yq ad   O9M. B: B",
"h b6     N- B: B: th b*3h b6     N- B: B: th b*3h b6     N- B: B",
"Z#J& 9mGKK< B: B: 1A#C @Z#J& 9mGKK< B: B: 1A#C @Z#J& 9mGKK< B: B"
};
