/* XPM */
static char * Collectibles_xpm[] = {
"32 32 50 1",
" 	c #D8D8D8",
".	c #FFFFFF",
"+	c #000000",
"@	c #BCA222",
"#	c #D1BA42",
"$	c #FFDF2F",
"%	c #F7051F",
"&	c #F6051F",
"*	c #D00210",
"=	c #C4010A",
"-	c #B90104",
";	c #B10000",
">	c #C6010B",
",	c #D30212",
"'	c #E60419",
")	c #F4051E",
"!	c #CB020E",
"~	c #E20318",
"{	c #F5051E",
"]	c #D70213",
"^	c #ED041C",
"/	c #E20316",
"(	c #FED119",
"_	c #FFD521",
":	c #DCB200",
"<	c #FFD520",
"[	c #DBB100",
"}	c #DEB400",
"|	c #E7BB00",
"1	c #F8CC0C",
"2	c #E1B600",
"3	c #A70000",
"4	c #8B0000",
"5	c #9C0000",
"6	c #830000",
"7	c #880000",
"8	c #890000",
"9	c #A10000",
"0	c #AD0000",
"a	c #9D0000",
"b	c #850000",
"c	c #920000",
"d	c #A50000",
"e	c #A40000",
"f	c #970000",
"g	c #8F0000",
"h	c #8A0000",
"i	c #870000",
"j	c #840000",
"k	c #860000",
"                                ",
" .............................. ",
" ....++..@@.................... ",
" ...+...@@@@....+.............. ",
" ...+....@#....+..........$$.$$ ",
" ...+.............@......$$$$$$ ",
" ...++++++++++++++++++++++$$$$$ ",
" ..+%%%%%%%&&&&&&&%%%%%%%$$$$$. ",
" ..+***=-;;;;;;;;;;>,')%%$$$$$$ ",
" ..+;;;;;;;;;;;;;;;;;-!~{%$$+$$ ",
" ..+;;;;;;;;;;;;;;;;;;;-]^$$+.. ",
" ..+;;;;;;;;;;;;;;;;;;;;;;!/+.. ",
" .++;;;;;;;;;;;(_;;;;;;;;;;;++. ",
" +++;;;;;;;;;;:++<;;;;;;;;;;+.. ",
" +.+++++++++++[}|1+++++++++++.. ",
" .++;;;;;;;;;;[++2;;;;;;;;;;+.. ",
" ..+;;;;;;;;;;[++[;;;;;;;;;;+.. ",
" ..+;;;;;;;;;;[[[[;;;;;;;;;;+.. ",
" ..+3;;;;;;;;;;;;;;;;;;;;;;;+.. ",
" ..+45;;;;;;;;;;;;;;;;;;;;;;+.. ",
" .@+675;;;;;;;;;;;;;;;;;;;;;+.. ",
" .@+666890;;;;;;;;;;;;;;;;;;+.. ",
" ..+666667a;;;;;;;;;;;;;;;;;+.. ",
" ..+6666666bcdeafghibjjjjjjb+.. ",
" ..+666666666kk6666666666666+.. ",
" ..+666666666666666666666666+.. ",
" ..++++++++++++++++++++++++++.. ",
" ...+........++...@@@....+..... ",
" .+..........+....#@@....+..... ",
" ............+.....@........... ",
" .............................. ",
"                                "};
