/* XPM */
static char * Exit_xpm[] = {
"32 32 7 1",
" 	c #5A5A5A",
".	c #FFFFFF",
"+	c #000000",
"@	c #BCBCBC",
"#	c #D8D8D8",
"$	c #989898",
"%	c #FBFBFB",
"                                ",
" ......++++++++++++++++++++++++ ",
" ......++++++++++++++++++++++++ ",
" ......@+++++++++++++++++++++++ ",
" ......@#######++++++++++++++++ ",
" ......@#######++++++++++++++++ ",
" ......@#######$+++++++++++++++ ",
" .....%@#######$@@@@@@@++++++++ ",
" ......@#######$@@@@@@@++++++++ ",
" ......@#######$@@@@@@@ +++++++ ",
" ......@#######$@@@@@@@ $$$$$$$ ",
" ......@#######$@@@@@@@ $$$$$$$ ",
" ......@#######$@@@@@@@ $$$$$$$ ",
" ......@#######$@@@@@@@ $$$$$$$ ",
" ......@#######$@@@@@@@ $$$$$$$ ",
" ......@#######$@@@@@@@ $$$$$$$ ",
" ......@#######$@@@@@@@ $$$$$$$ ",
" ......@#######$@@@@@@@ $$$$$$$ ",
" ......@#######$@@@@@@@ $$$$$$$ ",
" ......@#######$@@@@@@@ $$$$$$$ ",
" ......@#######$@@@@@@@ $$$$$$$ ",
" ......@#######$@@@@@@@ $$$$$$$ ",
" ......@#######$@@@@@@@ $$$$$$$ ",
" ......@#######$@@@@@@@ $$$$$$$ ",
" ......@#######$@@@@@@@ $$$$$$$ ",
" ......@#######$@@@@@@@ $$$$$$$ ",
" ......@#######$@@@@@@@ $$$$$$$ ",
" ......@#######$@@@@@@@ $$$$$$$ ",
" ......@#######$@@@@@@@ $$$$$$$ ",
" ......@#######$@@@@@@@ $$$$$$$ ",
" ......@#######$@@@@@@@ $$$$$$$ ",
"                                "};
