/* XPM */
static char * Free_xpm[] = {
"32 32 3 1",
" 	c #D8D8D8",
".	c #FFFFFF",
"+	c #000000",
"                                ",
" .............................. ",
" ....++........................ ",
" ...+...........+.............. ",
" ...+..........+..........+.... ",
" ...+....................+++... ",
" ...+.....................++... ",
" .............................. ",
" .............................. ",
" .............................. ",
" .............................. ",
" .........+.......+.+.......+.. ",
" .+..............+.+.......+.+. ",
" ++................+........+.. ",
" +............................. ",
" .+............................ ",
" .............................. ",
" .............................. ",
" .........+.............+...... ",
" ........+..................... ",
" .......++..................... ",
" .......+...................... ",
" .............................. ",
" .............................. ",
" .............................. ",
" ....+..................+...... ",
" ..+...........+........++..... ",
" ...+........++..........+..... ",
" .+..........+...........+..... ",
" ............+................. ",
" .............................. ",
"                                "};
