/* XPM */
static char * Player_xpm[] = {
"32 32 5 1",
" 	c #D8D8D8",
".	c #FFFFFF",
"+	c #000000",
"@	c #7B7B7B",
"#	c #E3CA18",
"                                ",
" ..........+++++++++++......... ",
" ....++...+@@@@@@@@@@@+........ ",
" ...+.....+@@@@+++@@@@+........ ",
" ...+.....+@@+++++++@@+...+.... ",
" ...+.....+@@+..+..+@@+..+++... ",
" ...+.....+@@++.++.+@@+...++... ",
" ..........+@++.++.+@+......... ",
" ..........+@+++++++@+......... ",
" ..........+@@@@@@@@@+......... ",
" ..........+++++++++++......... ",
" .........++@@@@@@@@@++.....+.. ",
" .+.....++@+@@@@@@#@@+@++..+.+. ",
" ++....+@@++@@@@@###@++@@+..+.. ",
" +.....+@@++@@@@@@#@@++@@+..... ",
" .+....+@@++@@@@@@@@@++@@+..... ",
" .....+@@+.+@@@@@@@@@+.+@@+.... ",
" .....+@@+.+@@@@@@@@@+.+@@+.... ",
" .....+@@+.+@@@@@@@@@+.+@@+.... ",
" .....++++.+@@@@@@@@@+.++++.... ",
" .......++.+++++++++++......... ",
" .......+..+@@@+.+@@@+......... ",
" ..........+@@@+.+@@@+......... ",
" ..........+@@@+.+@@@+......... ",
" ..........+@@@+.+@@@+......... ",
" ....+.....+@@@+.+@@@+..+...... ",
" ..+.......+@@@+.+@@@+..++..... ",
" ...+......+@@@+.+@@@+...+..... ",
" .+........+@@@+.+@@@+...+..... ",
" ..........+++++.+++++......... ",
" .............................. ",
"                                "};
